<?xml version="1.0" encoding="UTF-8" standalone="no"?>
<svg xmlns:dc="http://purl.org/dc/elements/1.1/" xmlns:cc="http://creativecommons.org/ns#" xmlns:rdf="http://www.w3.org/1999/02/22-rdf-syntax-ns#"
    xmlns="http://www.w3.org/2000/svg" id="svg8" version="1.1" viewBox="0 0 211.66666 211.66667"
    height="800" width="800">
  <defs
     id="defs2" />
  <metadata
     id="metadata5">
    <rdf:RDF>
      <cc:Work
         rdf:about="">
        <dc:format>image/svg+xml</dc:format>
        <dc:type
           rdf:resource="http://purl.org/dc/dcmitype/StillImage" />
        <dc:title></dc:title>
      </cc:Work>
    </rdf:RDF>
  </metadata>
  <rect
     ry="25"
     y="0"
     x="0"
     height="211.66667"
     width="211.66667"
     id="rect4493"
     style="opacity:1;fill:#d9e1e8;fill-opacity:1;fill-rule:nonzero;stroke:#7c95b6;stroke-width:0;stroke-linecap:round;stroke-linejoin:round;stroke-miterlimit:4;stroke-dasharray:none;stroke-opacity:1;paint-order:fill markers stroke" />
  <g
     style="display:inline"
     transform="translate(0,-85.333317)"
     id="layer1">
    <g
       transform="matrix(1.2,0,0,1.2,-19.120545,-34.579764)"
       id="g5131">
      <path
         id="path5100"
         d="m 132.28325,194.37945 c 9.73293,3.04024 10.32027,7.55178 19.0878,-0.75596 2.96859,-3.40402 3.33739,-7.87857 4.40651,-10.28376 4.07802,-9.17426 10.47436,-13.09128 12.41343,-22.60016 0.39388,-13.4991 -6.94563,-22.1565 -19.65476,-24.75744 -7.77531,-0.67136 -15.40514,1.27604 -22.67857,9.63839 z"
         style="display:inline;fill:#9baec8;fill-opacity:0.58823529;stroke:none;stroke-width:0.26458332px;stroke-linecap:butt;stroke-linejoin:miter;stroke-opacity:1" />
      <path
         id="path5122"
         d="m 127.94502,198.06471 c 2.45762,7.8996 4.79594,14.53489 11.15029,17.95388 -1.92137,1.41168 -3.27579,1.32004 -5.19717,1.5119 -7.12025,-1.59325 -11.49199,-4.61664 -16.34747,-9.73288 z"
         style="fill:#c1cddb;fill-opacity:1;stroke:#c1cddb;stroke-width:3.5;stroke-linecap:round;stroke-linejoin:round;stroke-miterlimit:4;stroke-dasharray:none;stroke-opacity:1;paint-order:fill markers stroke" />
      <path
         style="display:inline;fill:#9baec8;fill-opacity:0.58823529;stroke:none;stroke-width:0.26458332px;stroke-linecap:butt;stroke-linejoin:miter;stroke-opacity:1"
         d="m 75.973214,194.37945 c -9.732929,3.04024 -10.320271,7.55178 -19.087797,-0.75596 -2.968597,-3.40402 -3.337392,-7.87857 -4.406513,-10.28376 -4.078022,-9.17426 -10.474359,-13.09128 -12.41343,-22.60016 -0.39388,-13.4991 6.945626,-22.1565 19.654764,-24.75744 7.77531,-0.67136 15.405133,1.27604 22.67857,9.63839 z"
         id="path5081" />
      <path
         style="fill:#c1cddb;fill-opacity:1;stroke:#c1cddb;stroke-width:3.5;stroke-linecap:round;stroke-linejoin:round;stroke-miterlimit:4;stroke-dasharray:none;stroke-opacity:1;paint-order:fill markers stroke"
         d="m 79.374999,198.06471 c -2.457624,7.8996 -4.79594,14.53489 -11.150297,17.95388 1.921379,1.41168 3.275793,1.32004 5.197172,1.5119 7.120253,-1.59325 11.491994,-4.61664 16.347469,-9.73288 z"
         id="path5120" />
      <path
         style="display:inline;fill:#a3b6cf;fill-opacity:1;stroke:none;stroke-width:0.26458332px;stroke-linecap:butt;stroke-linejoin:miter;stroke-opacity:0"
         d="m 103.84896,136.73793 c 15.13827,0.82979 26.87348,9.00914 31.46629,26.64747 1.61503,8.73401 0.93145,18.07152 -1.51153,27.59211 -2.81485,8.52159 -9.07481,14.90009 -15.875,20.41064 -0.98147,6.60405 -0.94269,6.47393 -2.8349,10.48884 -5.90477,11.31517 -13.06111,13.95805 -18.616873,16.5918 -5.599281,1.63795 -10.434034,1.74685 -15.29848,1.91514 l 0.181157,-11.13638 c 2.334689,-0.31211 4.733838,-0.30191 6.830423,-1.80454 1.838528,-1.29054 2.59012,-2.79846 3.18562,-4.3376 1.170265,-4.15048 1.097036,-7.47196 -7.2e-5,-10.11086 -7.934118,-5.22706 -14.66656,-13.49545 -17.481399,-22.01704 -2.442979,-9.52059 -3.126557,-18.8581 -1.511535,-27.59211 4.59282,-17.63833 16.328014,-25.81768 31.466299,-26.64747 z"
         id="path5087" />
      <path
         style="display:inline;fill:none;stroke:#7c95b6;stroke-width:2.08333325;stroke-linecap:round;stroke-linejoin:miter;stroke-miterlimit:4;stroke-dasharray:none;stroke-opacity:1"
         d="m 80.418363,185.02591 c 4.018619,-8.40248 10.790056,-6.52483 13.221605,0.12474"
         id="path5096" />
      <path
         id="path5118"
         d="m 128.11651,185.02591 c -4.01862,-8.40248 -10.79006,-6.52483 -13.22161,0.12474"
         style="display:inline;fill:none;stroke:#7c95b6;stroke-width:2.08333325;stroke-linecap:round;stroke-linejoin:miter;stroke-miterlimit:4;stroke-dasharray:none;stroke-opacity:1" />
    </g>
  </g>
</svg>
